<?xml version="1.0" standalone="no"?>
<!DOCTYPE svg PUBLIC "-//W3C//DTD SVG 20010904//EN"
 "http://www.w3.org/TR/2001/REC-SVG-20010904/DTD/svg10.dtd">
<svg version="1.0" xmlns="http://www.w3.org/2000/svg"
 width="2048.000000pt" height="2048.000000pt" viewBox="0 0 2048.000000 2048.000000"
 preserveAspectRatio="xMidYMid meet">

<g transform="translate(0.000000,2048.000000) scale(0.100000,-0.100000)"
fill="#000000" stroke="none">
<path d="M5878 14622 c-833 -833 -1058 -1063 -1058 -1082 0 -14 0 -315 0 -670
1 -783 8 -1132 24 -1142 8 -6 8 -8 -1 -8 -7 0 -13 -9 -13 -20 0 -11 3 -19 8
-19 20 3 25 -2 12 -12 -13 -9 -13 -10 2 -6 9 3 19 1 22 -6 3 -8 5 -8 5 -1 1 6
-6 17 -14 24 -19 16 -19 30 0 30 9 0 15 9 15 21 0 19 1 19 16 4 10 -9 20 -12
23 -7 8 12 55 27 48 15 -4 -5 0 -10 8 -10 8 0 15 8 15 18 0 17 -3 17 -42 3
-22 -8 -44 -12 -47 -9 -7 8 21 25 31 19 4 -2 12 5 18 16 6 11 16 20 23 20 7 0
6 -4 -3 -10 -13 -8 -12 -10 3 -10 10 0 17 8 17 19 0 14 -6 19 -20 16 -11 -2
-20 1 -20 6 0 5 8 9 18 7 15 -3 17 11 22 147 3 83 6 456 8 830 l3 680 1007
1008 1007 1007 805 1 c961 1 959 1 978 25 13 17 14 17 9 2 -5 -14 -1 -18 18
-18 13 0 30 6 37 13 11 12 16 12 26 0 18 -19 38 -17 22 2 -11 13 -8 15 14 13
14 -1 26 -6 26 -10 0 -4 7 -5 16 -1 10 4 12 8 5 12 -7 5 -8 18 -2 38 7 22 6
33 -2 37 -7 3 -6 5 3 5 8 -1 24 -1 35 0 15 1 17 3 6 10 -7 5 -11 13 -7 19 4 6
-2 8 -14 5 -14 -4 -20 0 -20 10 0 15 -97 16 -1017 17 l-1018 0 -1057 -1058z
m3072 1038 c0 -5 -5 -10 -11 -10 -5 0 -7 5 -4 10 3 6 8 10 11 10 2 0 4 -4 4
-10z m-107 -125 c-3 -9 -8 -14 -10 -11 -3 3 -2 9 2 15 9 16 15 13 8 -4z
m-3990 -3680 c-7 -21 -13 -19 -13 6 0 11 4 18 10 14 5 -3 7 -12 3 -20z m34
-37 c-3 -8 -6 -5 -6 6 -1 11 2 17 5 13 3 -3 4 -12 1 -19z m53 -1 c0 -7 -4 -6
-10 3 -8 12 -10 12 -10 1 0 -8 -3 -12 -6 -8 -9 9 6 28 17 22 5 -4 9 -12 9 -18z
m-10 -29 c0 -4 -4 -8 -9 -8 -6 0 -12 4 -15 8 -3 5 1 9 9 9 8 0 15 -4 15 -9z
m-40 -8 c0 -5 -4 -10 -10 -10 -5 0 -10 5 -10 10 0 6 5 10 10 10 6 0 10 -4 10
-10z"/>
<path d="M9030 15640 c8 -5 20 -10 25 -10 6 0 3 5 -5 10 -8 5 -19 10 -25 10
-5 0 -3 -5 5 -10z"/>
<path d="M8985 15590 c-3 -5 -1 -10 4 -10 6 0 11 5 11 10 0 6 -2 10 -4 10 -3
0 -8 -4 -11 -10z"/>
<path d="M8978 15553 c7 -3 16 -2 19 1 4 3 -2 6 -13 5 -11 0 -14 -3 -6 -6z"/>
<path d="M10035 13298 c-157 -10 -437 -56 -599 -98 -249 -64 -659 -248 -876
-393 -420 -282 -751 -635 -1000 -1070 -289 -506 -432 -1158 -380 -1737 57
-621 258 -1139 641 -1646 114 -152 317 -357 474 -482 66 -52 126 -102 133
-110 9 -12 12 -112 12 -422 l0 -407 740 -736 c407 -406 746 -737 755 -737 8 0
15 -4 15 -10 0 -5 4 -10 10 -10 5 0 7 8 4 18 -5 15 -4 15 6 -1 7 -10 9 -21 7
-24 -3 -3 -1 -11 6 -18 13 -14 50 -8 41 7 -4 6 4 4 17 -3 22 -11 23 -11 10 5
-12 15 -12 17 0 14 8 -2 13 3 11 11 -2 11 0 12 10 4 8 -7 20 -7 33 -2 18 9 18
9 -2 5 -24 -4 -32 9 -10 17 10 4 10 6 0 6 -7 1 -13 8 -13 18 0 13 4 11 21 -8
16 -18 20 -20 18 -7 -5 21 -95 113 -891 916 l-608 613 2 313 3 314 65 -40 c97
-59 349 -181 480 -231 538 -207 1119 -249 1720 -125 553 114 1122 428 1531
844 191 195 314 355 456 589 222 369 349 741 408 1190 85 651 -63 1367 -396
1921 -27 45 -49 85 -49 88 0 3 143 6 318 6 l317 0 645 -640 c804 -797 758
-753 770 -745 7 4 14 -2 17 -15 4 -16 12 -21 28 -18 18 4 21 1 17 -14 -2 -10
1 -18 7 -18 6 0 21 -10 33 -22 16 -16 20 -17 15 -5 -3 9 -2 17 3 17 6 0 10 8
11 18 0 12 3 10 10 -7 7 -18 6 -27 -3 -33 -7 -4 -8 -8 -3 -8 15 0 37 16 36 26
0 5 10 8 22 7 12 -1 16 0 10 3 -20 9 -15 24 6 24 11 0 23 4 26 10 4 6 -1 7
-11 3 -14 -5 -16 -3 -11 11 5 12 0 19 -16 26 -12 5 -18 9 -13 9 5 1 3 8 -4 16
-7 8 -17 12 -23 8 -6 -3 -7 -1 -3 6 9 14 -76 102 -889 918 l-599 603 -411 1
c-225 0 -417 3 -426 7 -9 4 -50 50 -90 102 -119 155 -354 382 -530 512 -425
314 -855 498 -1354 582 -246 42 -453 52 -710 34z m446 -178 c280 -27 546 -87
776 -176 460 -177 855 -452 1167 -814 285 -331 499 -738 601 -1139 32 -127 72
-351 85 -479 12 -108 11 -334 -1 -326 -4 2 -15 -3 -23 -12 -9 -8 -16 -11 -16
-5 0 5 8 14 18 20 13 8 8 9 -23 8 -33 -2 -39 1 -37 16 3 19 -8 23 -24 7 -6 -6
-10 -3 -11 10 -1 15 5 20 25 21 23 1 22 3 -8 8 -19 4 -39 4 -44 0 -5 -4 -16
-5 -25 -2 -13 4 -13 3 -2 -5 8 -6 21 -7 30 -4 14 5 14 4 1 -12 -9 -12 -16 -14
-18 -7 -3 9 -7 9 -17 1 -10 -8 -19 -8 -33 -1 -11 6 -29 8 -41 6 -11 -2 -21 1
-21 7 0 5 6 8 14 5 7 -3 19 0 25 6 8 8 11 8 11 -2 0 -7 5 -9 11 -5 19 11 -9
21 -49 18 -30 -3 -33 -2 -19 7 9 5 22 7 27 4 6 -3 10 -1 10 4 0 6 -4 11 -10
11 -5 0 -10 7 -10 15 0 8 -9 15 -20 15 -11 0 -20 6 -20 13 0 8 -3 7 -10 -3
-15 -24 -21 -6 -26 81 -14 234 -65 461 -160 719 -180 485 -516 912 -944 1200
-674 453 -1477 562 -2242 304 -493 -165 -894 -455 -1224 -886 -117 -151 -282
-455 -346 -634 -74 -205 -154 -591 -148 -708 1 -17 2 -46 1 -65 -1 -30 -4 -33
-25 -29 -20 4 -24 1 -23 -16 0 -12 6 -25 12 -29 6 -5 3 -7 -7 -3 -11 3 -18 0
-18 -7 0 -7 11 -13 24 -13 15 0 22 5 19 13 -3 7 0 13 6 13 6 0 11 -8 11 -17 0
-15 2 -16 10 -3 9 13 14 7 11 -12 -3 -18 20 -6 29 15 7 17 9 18 9 4 1 -15 4
-15 21 -5 11 7 16 14 10 16 -5 2 -10 10 -10 18 0 17 31 18 49 2 11 -11 12 -10
6 0 -6 11 -3 11 14 0 18 -11 21 -22 21 -93 0 -246 62 -554 163 -811 60 -153
124 -271 252 -464 98 -148 126 -182 275 -330 265 -265 520 -430 865 -560 254
-96 507 -140 813 -140 441 0 775 91 1177 319 181 103 299 194 465 357 198 195
343 390 465 626 38 73 129 311 163 423 49 167 82 410 82 616 0 78 3 96 15 96
9 0 15 -10 16 -26 0 -22 2 -23 8 -7 6 17 9 17 21 4 16 -17 34 -5 43 28 3 14 5
12 6 -8 0 -15 5 -30 11 -33 6 -3 7 1 4 9 -3 9 -1 16 5 16 6 0 11 -8 11 -17 0
-15 2 -14 15 3 15 18 15 18 13 0 -2 -11 4 -20 15 -21 19 -4 22 6 6 22 -7 7 -6
12 5 16 12 5 16 0 16 -23 0 -23 -4 -30 -20 -30 -15 0 -20 -6 -19 -27 2 -24 2
-25 6 -5 5 26 18 29 27 6 3 -8 2 -12 -4 -9 -6 3 -10 -1 -10 -9 0 -9 -4 -16 -9
-16 -4 0 -11 -55 -14 -122 -4 -68 -9 -139 -11 -158 -54 -370 -158 -675 -327
-952 -235 -386 -478 -635 -864 -887 -249 -162 -583 -288 -905 -341 -569 -93
-1148 6 -1642 281 -512 284 -915 746 -1138 1303 -52 129 -107 336 -135 501 -9
55 -19 114 -22 130 -3 17 -6 67 -7 112 -1 60 -5 83 -14 83 -7 0 -15 7 -18 15
-4 8 -10 15 -16 15 -5 0 -6 -4 -3 -10 3 -5 1 -10 -4 -10 -6 0 -12 -10 -12 -22
l-2 -23 -4 22 c-2 12 -10 24 -16 26 -7 2 -4 3 6 2 9 -2 17 1 17 6 0 5 -11 9
-23 9 -13 0 -27 3 -31 8 -4 4 -11 7 -14 7 -19 2 -52 17 -52 25 0 14 13 19 63
21 26 2 47 6 47 11 0 4 -4 8 -10 8 -14 0 -13 27 2 36 8 5 9 2 5 -9 -3 -10 -2
-17 3 -17 6 0 10 9 10 20 0 13 -7 20 -20 20 -11 0 -19 -3 -19 -7 1 -5 1 -19 0
-33 -1 -20 -3 -22 -11 -10 -6 10 -10 11 -10 3 0 -7 -5 -13 -12 -13 -6 0 -3 9
7 20 15 16 15 20 3 20 -8 0 -19 -10 -25 -22 -6 -15 -12 -18 -17 -10 -4 7 -2
12 3 12 6 0 11 5 11 11 0 16 -71 1 -85 -18 -8 -10 -14 -12 -18 -6 -4 6 0 13 8
17 8 3 15 13 15 23 -1 17 -1 17 -11 1 -5 -10 -16 -18 -24 -18 -9 0 -12 -7 -9
-17 4 -13 2 -13 -8 3 -9 14 -22 19 -42 17 l-29 -2 6 112 c18 342 105 717 232
1007 173 395 488 812 810 1071 475 382 984 588 1615 652 79 8 365 6 461 -3z
m4540 -2597 c-12 -20 -14 -14 -5 12 4 9 9 14 11 11 3 -2 0 -13 -6 -23z m69
-37 c0 -2 -7 -7 -16 -10 -8 -3 -12 -2 -9 4 6 10 25 14 25 6z m-20 -42 c0 -2
-7 -4 -15 -4 -8 0 -15 4 -15 10 0 5 7 7 15 4 8 -4 15 -8 15 -10z m-65 -3 c3
-5 2 -12 -3 -15 -5 -3 -9 1 -9 9 0 17 3 19 12 6z m-2358 -113 c-3 -8 -6 -5 -6
6 -1 11 2 17 5 13 3 -3 4 -12 1 -19z m193 -28 c0 -5 -4 -10 -10 -10 -5 0 -10
5 -10 10 0 6 5 10 10 10 6 0 10 -4 10 -10z m-5130 -10 c0 -5 -9 -10 -21 -10
-11 0 -17 5 -14 10 3 6 13 10 21 10 8 0 14 -4 14 -10z m-320 -32 c0 -9 4 -8
11 2 9 13 10 13 6 0 -2 -8 -10 -14 -17 -12 -7 2 -17 -3 -21 -10 -5 -8 -8 -5
-6 10 1 23 27 32 27 10z m132 -25 c-10 -4 -10 -9 3 -23 15 -16 14 -17 -10 -12
-27 5 -45 22 -23 22 9 0 9 3 -2 10 -11 7 -8 10 15 9 17 0 24 -3 17 -6z m70
-61 c3 7 5 -1 4 -19 -1 -28 -16 -38 -16 -11 0 6 -8 21 -17 32 -18 21 -18 21 3
3 17 -14 23 -15 26 -5z m5523 -12 c3 -6 -1 -7 -9 -4 -18 7 -21 14 -7 14 6 0
13 -4 16 -10z m-5610 -38 c-3 -3 -11 0 -18 7 -9 10 -8 11 6 5 10 -3 15 -9 12
-12z m167 -4 c-7 -7 -12 -8 -12 -2 0 14 12 26 19 19 2 -3 -1 -11 -7 -17z
m2373 -4638 c3 -5 1 -10 -4 -10 -6 0 -11 5 -11 10 0 6 2 10 4 10 3 0 8 -4 11
-10z"/>
<path d="M7493 10312 c0 -12 4 -22 8 -22 9 0 21 31 14 38 -3 3 -5 -1 -5 -9 0
-12 -2 -11 -10 1 -7 12 -9 10 -7 -8z"/>
<path d="M7535 10310 c-3 -5 -1 -10 4 -10 6 0 11 5 11 10 0 6 -2 10 -4 10 -3
0 -8 -4 -11 -10z"/>
<path d="M12887 10313 c-13 -13 -7 -33 11 -33 13 0 14 2 3 9 -7 5 -10 14 -7
20 8 12 3 15 -7 4z"/>
<path d="M7390 10300 c0 -5 5 -10 10 -10 6 0 10 5 10 10 0 6 -4 10 -10 10 -5
0 -10 -4 -10 -10z"/>
<path d="M12932 10295 c-10 -12 -10 -15 2 -15 7 0 16 7 20 15 7 19 -5 19 -22
0z"/>
<path d="M13010 10286 c0 -2 7 -7 16 -10 8 -3 12 -2 9 4 -6 10 -25 14 -25 6z"/>
<path d="M12715 10260 c3 -5 8 -10 11 -10 2 0 4 5 4 10 0 6 -5 10 -11 10 -5 0
-7 -4 -4 -10z"/>
<path d="M13075 10250 c-3 -6 1 -7 9 -4 18 7 21 14 7 14 -6 0 -13 -4 -16 -10z"/>
<path d="M12742 10230 c0 -14 2 -19 5 -12 2 6 2 18 0 25 -3 6 -5 1 -5 -13z"/>
<path d="M7683 10186 c12 -26 19 -26 23 0 1 9 0 13 -3 10 -4 -3 -12 -1 -19 5
-10 8 -11 6 -1 -15z"/>
<path d="M12725 10180 c-3 -5 1 -10 9 -10 9 0 16 5 16 10 0 6 -4 10 -9 10 -6
0 -13 -4 -16 -10z"/>
<path d="M4930 11714 c0 -8 5 -12 10 -9 6 3 10 10 10 16 0 5 -4 9 -10 9 -5 0
-10 -7 -10 -16z"/>
<path d="M4830 11646 c0 -2 7 -7 16 -10 8 -3 12 -2 9 4 -6 10 -25 14 -25 6z"/>
<path d="M15128 10437 c-15 -12 -15 -14 4 -26 18 -11 19 -10 13 10 -5 16 -4
19 5 14 9 -5 11 -4 6 3 -9 14 -7 14 -28 -1z"/>
<path d="M15070 10399 c0 -5 5 -7 10 -4 6 3 10 8 10 11 0 2 -4 4 -10 4 -5 0
-10 -5 -10 -11z"/>
<path d="M15096 10367 c3 -10 9 -15 12 -12 3 3 0 11 -7 18 -10 9 -11 8 -5 -6z"/>
<path d="M10020 5391 c0 -6 4 -13 10 -16 6 -3 7 1 4 9 -7 18 -14 21 -14 7z"/>
</g>
</svg>
